<svg width="26" height="26" viewBox="0 0 26 26" fill="none" xmlns="http://www.w3.org/2000/svg">
<path d="M13.5997 17.8816C13.4457 18.0499 13.2281 18.1458 13 18.1458C12.7719 18.1458 12.5543 18.0499 12.4004 17.8816L8.06702 13.142C7.76423 12.8108 7.78724 12.2969 8.11842 11.9941C8.44959 11.6913 8.96353 11.7143 9.26632 12.0455L12.1875 15.2405V3.25C12.1875 2.80127 12.5513 2.4375 13 2.4375C13.4487 2.4375 13.8125 2.80127 13.8125 3.25V15.2405L16.7337 12.0455C17.0365 11.7143 17.5504 11.6913 17.8816 11.9941C18.2128 12.2969 18.2358 12.8108 17.933 13.142L13.5997 17.8816Z" fill="#01579B"/>
<path d="M4.0625 16.25C4.0625 15.8013 3.69873 15.4375 3.25 15.4375C2.80127 15.4375 2.4375 15.8013 2.4375 16.25V16.3094C2.43748 17.791 2.43746 18.9852 2.56373 19.9244C2.69484 20.8995 2.9753 21.7205 3.62738 22.3726C4.27946 23.0247 5.10049 23.3052 6.0756 23.4363C7.01482 23.5625 8.209 23.5625 9.69056 23.5625H16.3094C17.791 23.5625 18.9852 23.5625 19.9244 23.4363C20.8995 23.3052 21.7205 23.0247 22.3726 22.3726C23.0247 21.7205 23.3052 20.8995 23.4363 19.9244C23.5625 18.9852 23.5625 17.791 23.5625 16.3094V16.25C23.5625 15.8013 23.1987 15.4375 22.75 15.4375C22.3013 15.4375 21.9375 15.8013 21.9375 16.25C21.9375 17.805 21.9358 18.8896 21.8258 19.7079C21.7189 20.5028 21.5234 20.9237 21.2236 21.2236C20.9237 21.5234 20.5028 21.7189 19.7079 21.8258C18.8896 21.9358 17.805 21.9375 16.25 21.9375H9.75C8.19497 21.9375 7.11043 21.9358 6.29213 21.8258C5.49721 21.7189 5.07626 21.5234 4.77643 21.2236C4.4766 20.9237 4.28112 20.5028 4.17424 19.7079C4.06423 18.8896 4.0625 17.805 4.0625 16.25Z" fill="#01579B"/>
</svg>
