<svg xmlns="http://www.w3.org/2000/svg" xmlns:xlink="http://www.w3.org/1999/xlink" viewBox="0 0 1500 1500"><defs><style>.cls-1{fill:#d1e5ff;}.cls-2{fill:#c2d4ed;}.cls-3{fill:#026fb8;}.cls-4{fill:#0288d1;}.cls-5{opacity:0.15;}.cls-25,.cls-28,.cls-30,.cls-6{fill:none;stroke-linecap:round;stroke-linejoin:round;}.cls-6{stroke:#fff;stroke-width:2.96px;}.cls-7{fill:#3d1c00;}.cls-8{fill:url(#linear-gradient);}.cls-9{fill:url(#linear-gradient-2);}.cls-10,.cls-14,.cls-16{fill:#f6a98d;}.cls-11{fill:url(#linear-gradient-3);}.cls-12{fill:url(#linear-gradient-4);}.cls-13{fill:#fcc49d;}.cls-14{opacity:0.5;}.cls-15{fill:url(#linear-gradient-5);}.cls-16{opacity:0.2;}.cls-17,.cls-20{fill:#fff;}.cls-18{fill:#7f3b04;}.cls-19{opacity:0.1;}.cls-20{opacity:0.7;}.cls-21,.cls-37{fill:#fcba9d;}.cls-21{opacity:0.6;}.cls-22{fill:url(#linear-gradient-6);}.cls-23{fill:#5c3612;}.cls-24{fill:#fc8551;}.cls-25{stroke:#f6a98d;stroke-width:2.37px;}.cls-26{fill:#2e1500;}.cls-27{fill:#007062;}.cls-28,.cls-30{stroke:#e6e6e6;}.cls-28{stroke-width:1.24px;}.cls-29{fill:#008a78;}.cls-30{stroke-width:1.45px;}.cls-31{fill:#00ab95;}.cls-32{fill:#c69c6d;}.cls-33{fill:#b38d63;}.cls-34{fill:#d9d9d9;}.cls-35{fill:#4d4d4d;}.cls-36{fill:#666;}.cls-38{fill:#012d4f;}.cls-39{fill:#014780;}.cls-40{fill:#01579b;}.cls-41{fill:url(#linear-gradient-7);}.cls-42{fill:#ccc;}.cls-43{fill:#b38254;}.cls-44{fill:#edac70;}.cls-45{fill:#ffdbba;}.cls-46{font-size:13.68px;font-family:MVBoli, MV Boli;}.cls-47{fill:#ffaaac;}.cls-48{fill:#ff6e71;}</style><linearGradient id="linear-gradient" x1="665.39" y1="309.58" x2="644.42" y2="190.55" gradientTransform="translate(1230.59 859.16) rotate(-175.2)" gradientUnits="userSpaceOnUse"><stop offset="0" stop-color="#fcba9d"/><stop offset="0.19" stop-color="#fdc3a4"/><stop offset="0.55" stop-color="#ffcdac"/><stop offset="1" stop-color="#ffd0ae"/></linearGradient><linearGradient id="linear-gradient-2" x1="660.71" y1="288.82" x2="644.47" y2="227.69" gradientTransform="translate(1224.64 864.75) rotate(-175.2)" gradientUnits="userSpaceOnUse"><stop offset="0" stop-color="#f0a48a"/><stop offset="0.02" stop-color="#f1a68b"/><stop offset="0.29" stop-color="#f7b795"/><stop offset="0.58" stop-color="#fbc19b"/><stop offset="0.95" stop-color="#fcc49d"/></linearGradient><linearGradient id="linear-gradient-3" x1="3788.06" y1="869.89" x2="3767.09" y2="750.86" gradientTransform="matrix(-1, 0.08, 0.08, 1, 4539.26, -574.66)" xlink:href="#linear-gradient"/><linearGradient id="linear-gradient-4" x1="3783.37" y1="849.13" x2="3767.13" y2="788" gradientTransform="matrix(-1, 0.08, 0.08, 1, 4538.52, -573.88)" xlink:href="#linear-gradient-2"/><linearGradient id="linear-gradient-5" x1="2137.17" y1="2594.35" x2="2374.2" y2="2594.35" gradientTransform="translate(-1534.65 -2076.81)" xlink:href="#linear-gradient"/><linearGradient id="linear-gradient-6" x1="720.49" y1="575.4" x2="720.49" y2="547.99" gradientUnits="userSpaceOnUse"><stop offset="0" stop-color="#fcba9d"/><stop offset="0.02" stop-color="#fcba9d"/><stop offset="1" stop-color="#fcc49d"/></linearGradient><linearGradient id="linear-gradient-7" x1="727.28" y1="778.21" x2="727.28" y2="949.64" gradientUnits="userSpaceOnUse"><stop offset="0" stop-color="#b3b3b3"/><stop offset="0.43" stop-color="#b0b0b0"/><stop offset="0.75" stop-color="#a6a6a6"/><stop offset="1" stop-color="#999"/></linearGradient></defs><g id="Layer_3" data-name="Layer 3"><ellipse class="cls-1" cx="741.36" cy="1076.76" rx="545.84" ry="56.38"/><ellipse class="cls-2" cx="750.74" cy="1083.37" rx="220.94" ry="17.11"/><path class="cls-3" d="M846.61,877.5s25.61-10.51,40.11-5.61c0,0-31.47,5.89-41.71,16.93Z"/><path class="cls-3" d="M608.32,874.17s-22.85-5.83-33.13,2.69c0,0,33.26-2,49.19,8.43Z"/><path class="cls-4" d="M571.83,945.85l44.92,1.41V785.86h220v161.4s50.89-7,61.85-13.42c45.95-26.73-19.14-307.16-151.22-257.12L736.88,696s-32.27-17.4-62.74-24.5C591.66,652.3,489.11,848.47,571.83,945.85Z"/><path class="cls-4" d="M859.55,794.46l-.66,27q-10.49,3.32-21.21,6.07c-1.45.38-2.91.75-4.37,1.09a428.68,428.68,0,0,1-217.59-3.57c-1.4-.38-2.8-.79-4.19-1.21-2.69-.78-5.36-1.6-8-2.43v-27a115,115,0,0,1,12-51h0c1.06-2.15,2.18-4.27,3.38-6.34a122.73,122.73,0,0,1,21.25-27.3c1.62-1.58,3.29-3.1,5-4.6.86-.74,1.72-1.47,2.59-2.19l.17-.13s0,0,0-.05c.86-.7,1.71-1.38,2.58-2.06,1.36-1,2.74-2.09,4.15-3.09l1.14-.81A130,130,0,0,1,689,680.11l.83-.27c2.43-.8,4.88-1.53,7.37-2.19l1.28-.33c.27-.07.56-.15.84-.21l.73-.18c1.05-.26,2.11-.5,3.17-.72.77-.18,1.54-.34,2.33-.49h0l1.33-.25c.62-.13,1.26-.25,1.91-.35,1.33-.23,2.67-.44,4-.63a134.19,134.19,0,0,1,37,0c1.47.19,2.92.42,4.37.68l1.55.26.81.16c1,.18,1.93.38,2.88.58s2.09.46,3.14.71l.72.17,1.24.31.86.23c2.48.64,4.91,1.36,7.32,2.14.27.09.55.17.82.27a130.27,130.27,0,0,1,33.69,16.9l1.13.8c1.18.85,2.36,1.73,3.5,2.61.94.7,1.86,1.43,2.76,2.17.16.13.33.26.48.4l.05,0c.93.76,1.85,1.54,2.75,2.33,1.37,1.17,2.7,2.38,4,3.61l1,1a122.08,122.08,0,0,1,21.16,27.16c1.19,2,2.3,4.13,3.35,6.24A114.87,114.87,0,0,1,859.55,794.46Z"/><path class="cls-5" d="M672.92,652.06h96.21a26.4,26.4,0,0,1,26.4,26.4v6.43a16.79,16.79,0,0,1-16.79,16.79H663.32a16.79,16.79,0,0,1-16.79-16.79v-6.43A26.4,26.4,0,0,1,672.92,652.06Z"/><path class="cls-4" d="M683.71,642.21h74.63a35.8,35.8,0,0,1,35.8,35.8v2.65A16.32,16.32,0,0,1,777.83,697H664.23a16.32,16.32,0,0,1-16.32-16.32V678A35.8,35.8,0,0,1,683.71,642.21Z"/><path class="cls-6" d="M715.42,692.28s-3.47,16.81-12.54,24.29,0,14.94,0,14.94"/><path class="cls-6" d="M727.7,692.28s-9.07,25.35,1.6,27.49,3.21,14.15,3.21,14.15"/><path class="cls-7" d="M719.48,350.37c-76.93,0-139.29,66.78-139.29,149.17,0,58.44,31.38,109,77.08,133.49l2.77-10.6,3.76,13.87q2.43,1.14,4.92,2.19l.81-7.63,3.09,9.19a130.87,130.87,0,0,0,46.86,8.66c76.93,0,139.29-66.79,139.29-149.17S796.41,350.37,719.48,350.37Z"/><path class="cls-8" d="M594.7,513h0a33.1,33.1,0,0,1,33.1,33.1v11.74A33.1,33.1,0,0,1,594.7,591h0a24.56,24.56,0,0,1-24.56-24.56V537.59A24.56,24.56,0,0,1,594.7,513Z" transform="translate(1320.2 930.56) rotate(165.03)"/><rect class="cls-9" x="581.95" y="531.44" width="28.83" height="47.51" rx="14.41" transform="translate(1315.91 937.49) rotate(165.03)"/><rect class="cls-10" x="594.66" y="536.51" width="17.08" height="28.16" rx="8.54" transform="translate(1328.16 926.68) rotate(165.03)"/><path class="cls-11" d="M838.51,513h0a33.1,33.1,0,0,1,33.1,33.1v11.74a33.1,33.1,0,0,1-33.1,33.1h0A24.56,24.56,0,0,1,814,566.42V537.59A24.56,24.56,0,0,1,838.51,513Z" transform="translate(171.2 -198.97) rotate(14.97)"/><rect class="cls-12" x="830.97" y="531.44" width="28.83" height="47.51" rx="14.41" transform="matrix(0.97, 0.26, -0.26, 0.97, 172.11, -199.53)"/><rect class="cls-10" x="830.01" y="536.51" width="17.08" height="28.16" rx="8.54" transform="translate(170.69 -197.92) rotate(14.97)"/><path class="cls-13" d="M708.19,606h25.69a15.63,15.63,0,0,1,15.63,15.63V660.4a26.06,26.06,0,0,1-26.06,26.06h-4.84a26.06,26.06,0,0,1-26.06-26.06V621.63A15.63,15.63,0,0,1,708.19,606Z"/><path class="cls-14" d="M749.5,633.72V638a4.72,4.72,0,0,1-4.89,4.53H697.45a4.73,4.73,0,0,1-4.9-4.53v-4.29c0-7.94,7-14.38,15.56-14.38H734C742.53,619.34,749.5,625.78,749.5,633.72Z"/><path class="cls-10" d="M721.74,684.55H720c-15.17,0-27.59-11.07-27.59-24.6v2.85c0,13.54,12.42,24.61,27.59,24.61h1.77c15.18,0,27.59-11.07,27.59-24.61V660C749.33,673.48,736.92,684.55,721.74,684.55Z"/><rect class="cls-15" x="602.52" y="399.02" width="237.03" height="237.03" rx="101.43" transform="translate(1238.57 -203.49) rotate(90)"/><path class="cls-16" d="M738.11,632.31H704c-55.79,0-101.43-45.64-101.43-101.43v3.74c0,55.79,45.64,101.43,101.43,101.43h34.16c55.79,0,101.43-45.64,101.43-101.43v-3.74C839.54,586.67,793.9,632.31,738.11,632.31Z"/><rect class="cls-17" x="639.35" y="500.78" width="65.13" height="72.6" rx="32.56"/><rect class="cls-18" x="654.03" y="524.05" width="35.77" height="39.5" rx="17.08"/><circle cx="671.91" cy="543.8" r="9.61"/><path class="cls-19" d="M671.91,500.78h0a32.65,32.65,0,0,0-32.56,32.56v2.31a32.65,32.65,0,0,1,32.56-32.56h0a32.66,32.66,0,0,1,32.57,32.56v-2.31A32.66,32.66,0,0,0,671.91,500.78Z"/><circle class="cls-20" cx="680.19" cy="529.71" r="4.36"/><circle class="cls-20" cx="682.37" cy="539.45" r="2.18"/><rect class="cls-17" x="736.51" y="500.78" width="65.13" height="72.6" rx="32.56"/><rect class="cls-18" x="751.19" y="524.05" width="35.77" height="39.5" rx="17.08"/><circle cx="769.07" cy="543.8" r="9.61"/><path class="cls-19" d="M769.07,500.78h0a32.65,32.65,0,0,0-32.56,32.56v2.31a32.65,32.65,0,0,1,32.56-32.56h0a32.66,32.66,0,0,1,32.57,32.56v-2.31A32.66,32.66,0,0,0,769.07,500.78Z"/><circle class="cls-20" cx="776.64" cy="529.71" r="4.36"/><circle class="cls-20" cx="778.68" cy="539.45" r="2.18"/><path class="cls-21" d="M714.29,554l-7.55,13.07A7.17,7.17,0,0,0,713,577.8H728a7.17,7.17,0,0,0,6.21-10.75L726.7,554A7.16,7.16,0,0,0,714.29,554Z"/><path class="cls-22" d="M714.29,551.58l-7.55,13.07A7.17,7.17,0,0,0,713,575.4H728a7.17,7.17,0,0,0,6.21-10.75l-7.55-13.07A7.16,7.16,0,0,0,714.29,551.58Z"/><path class="cls-23" d="M648.27,500.78a1.79,1.79,0,0,0,1.37-.66,23.51,23.51,0,0,1,18.18-8.59H676a23.52,23.52,0,0,1,18.19,8.59,1.78,1.78,0,0,0,1.37.66h0a1.77,1.77,0,0,0,1.38-2.87,26.24,26.24,0,0,0-20.46-9.77h-9.14a26.27,26.27,0,0,0-20.46,9.77,1.77,1.77,0,0,0,1.39,2.87Z"/><path class="cls-23" d="M745.43,500.78a1.79,1.79,0,0,0,1.37-.66A23.51,23.51,0,0,1,765,491.53h8.18a23.52,23.52,0,0,1,18.19,8.59,1.78,1.78,0,0,0,1.37.66h0a1.77,1.77,0,0,0,1.38-2.87,26.24,26.24,0,0,0-20.46-9.77H764.5A26.27,26.27,0,0,0,744,497.91a1.77,1.77,0,0,0,1.39,2.87Z"/><path class="cls-24" d="M691.51,592.49s15.27,6.77,29,6.77,29.21-6.77,29.21-6.77S720.29,599.48,691.51,592.49Z"/><path class="cls-25" d="M681.7,583.18s4.22,13.35,38.76,13.35,39.72-13.35,39.72-13.35"/><path class="cls-7" d="M786.91,434.85s53.79,72.6,52.86,99.06c0,0,9.05-57.76,5.51-65.51l-39.16-56.08-27.24-9.23Z"/><path class="cls-7" d="M613.92,509.45S602.22,536.08,604,548c0,0-9.23-30.32-7.61-44.71S613.92,509.45,613.92,509.45Z"/><path class="cls-26" d="M805.81,424.21s1.91,40.23-22.76,35.8c0,0-40.64,52.36-103.86.42,0,0-10.09,38.92-49.2,32.53,0,0-1.34,26.64-30,19.86,0,0-32.37-12.55-32.37-37s17-39.92,17-39.92,2.64-94.74,100-81.94c0,0,69.46-44.52,117.09,26.26,0,0,30.29,6.36,44.23,36.55,0,0-17.21-16.31-28.57-17.78C817.3,399,825.6,422.81,805.81,424.21Z"/><polygon class="cls-3" points="839.84 796.86 829.9 759.57 825.45 796.86 839.84 796.86"/><polygon class="cls-3" points="617.05 799.31 626.99 762.02 631.45 799.31 617.05 799.31"/><ellipse class="cls-2" cx="1112.84" cy="1067.47" rx="70.78" ry="8.03"/><path class="cls-27" d="M1101.7,958.83s-58.86-63,3.07-58.27c0,0-24.58-82.63,14.55-25.33,0,0-1.08-134.32,13.87-120.23s10.31,119.29,10.31,119.29,15.46-41.33,20.62-31-24.23,60-24.23,60,59.8-33.15,37.12,2.74-44.85,52.79-44.85,52.79-17,26.3-23.72,13.15Z"/><path class="cls-28" d="M1112.84,975.61s25.94-118.23,21-198.07"/><path class="cls-28" d="M1103.8,872.41c6.13,14.94,21.87,30.89,21.87,30.89s20.1-15.86,29.89-44"/><path class="cls-28" d="M1159.76,906C1143,927.45,1118.67,946,1118.67,946s-8.68,1.59-26.81-25.65"/><path class="cls-29" d="M1095,963.7s22.61-21.76,18.92-44.24-25.62-4.35-25.62-4.35,19.48-34.11-13.39-23.94c0,0-7.91-89.17-21.92-111.65,0,0-14.61,66.68-6.69,111.65,0,0-19.48-30.86-14.61-12.89s20.7,41.91,20.7,41.91-18.27-22.71-24.35-9.91,33.48,48.34,33.48,48.34l23.41,23.2Z"/><path class="cls-30" d="M1084.89,986.17s-33.15-110.06-30.11-159.44"/><path class="cls-30" d="M1081.1,904.79c-6.85,15.26-12.7,18.9-12.7,18.9s-17.3-10-28.07-34.17"/><path class="cls-30" d="M1097.51,932a96.52,96.52,0,0,1-20.16,27.35s-26.76-20.63-35.74-38"/><path class="cls-31" d="M1145.11,953.29s-22.62-21.75-18.92-44.23,25.62-4.35,25.62-4.35-19.48-34.11,13.39-24c0,0,7.91-89.17,21.91-111.65,0,0,14.61,66.68,6.7,111.65,0,0,19.48-30.86,14.61-12.88s-20.7,41.9-20.7,41.9,18.27-22.7,24.35-9.9-33.48,48.33-33.48,48.33l-23.42,23.21Z"/><path class="cls-30" d="M1155.17,975.77s33.16-110.07,30.12-159.45"/><path class="cls-30" d="M1159,894.38c6.84,15.26,12.7,18.9,12.7,18.9s17.3-10,28.07-34.17"/><path class="cls-30" d="M1142.55,921.57a96.52,96.52,0,0,0,20.17,27.34s26.76-20.62,35.73-38"/><path class="cls-32" d="M1051.49,964.87l.79,7.41.71,6.65,9.26,86.81a284,284,0,0,0,103.34,0l9.26-86.81.71-6.65.79-7.41Z"/><rect class="cls-32" x="1038.56" y="951.77" width="150.72" height="20.51"/><polygon class="cls-33" points="1175.56 972.28 1174.85 978.93 1052.99 978.93 1052.28 972.28 1175.56 972.28"/><ellipse class="cls-1" cx="204.3" cy="1131.08" rx="88.19" ry="7.99"/><ellipse class="cls-1" cx="1313.11" cy="1035.87" rx="70.78" ry="8.03"/><ellipse class="cls-1" cx="336.89" cy="1151.32" rx="37.67" ry="8.51"/><path class="cls-34" d="M592.15,1111.42s-6.87,7.88-21.86,4.38c0,0-43.16-3-17-94.58l30.86,12.56Z"/><path class="cls-35" d="M675.84,1070.11s-.88,11.56-17.62,16-38.59,14.58-38.59,14.58-26.56,14.61-36.57,12.16l19.33-12.8Z"/><path class="cls-36" d="M616.48,1038.89l68.62,9.91s1.84,30.68-22.23,30.57l-60.48,20.69-19.33,12.8s-24.95-28.48-3.9-85.57Z"/><path class="cls-35" d="M593.22,1023s5.86,24.88,32.94,29.2a255.26,255.26,0,0,0,52.06,2.51Z"/><rect class="cls-17" x="626.49" y="1050.96" width="5.8" height="43.31" transform="matrix(1, -0.04, 0.04, 1, -46.87, 28.91)"/><polygon class="cls-17" points="642.81 1089.54 637.01 1089.79 635.3 1051.17 641.16 1052.38 642.81 1089.54"/><polygon class="cls-17" points="652.65 1085.8 646.85 1086.06 645.39 1053.06 651.24 1054.13 652.65 1085.8"/><polygon class="cls-17" points="661.77 1082.54 655.98 1082.8 654.74 1054.76 660.59 1055.89 661.77 1082.54"/><path class="cls-37" d="M842.41,1066.89l-8.19,25.52-.92.08-9.17.92-.43,0-10.57,1.07c-14.15,7-51.75-19-51.75-19s2.58-18.74,8.42-35.37,40.54-9.15,40.54-9.15l22.71,14.3,8,3.75Z"/><path class="cls-34" d="M885.59,1026.36S932,1036.43,935.25,1043s31.38,20.15,17.8,30-20.38,18.54-20.38,18.54l-8.67,1.13,6.79,1.88s49.43-5.39,39.59-44c0,0-15.93-34.2-67.23-33.73s-17.56,8.66-17.56,8.66"/><path class="cls-36" d="M932.68,1036.43l-17.1,12.18-45.81,3c-9,.33-22.52.68-32.59,3.21-11.44,2.82-18.55,8.44-9.93,20,0,0,5.87,10.63,6.09,16.67a5,5,0,0,1,0,1l-9.17.92,7.68,1.7c-1.43.57-3.39-.37-3.78-.55l3,1.94,9.36,2,23.19-4,28.11-6.56,23-.23,10.07,2.35,14.75,1.17S991.46,1066.65,932.68,1036.43Z"/><path class="cls-35" d="M806.88,1041.12s20.61,14.76,30.69,13.35l71.91-1.64s9.6,5.62,23.19-16.4c0,0-35.72-14.43-43-8.74Z"/><path class="cls-35" d="M939.46,1091.25c-8.44,5.25-24.67,4.57-32.32,5.64-14.15,2-56,1.39-56,1.39-16.61,6.55-26.24-3.46-27.46-4.83a1,1,0,0,1-.15-.16l.58.12,7.68,1.7,2.34.52a17.57,17.57,0,0,0,7.77,0l53-12.09C904.54,1079.15,939.46,1091.25,939.46,1091.25Z"/><rect class="cls-17" x="905.97" y="1050.59" width="4.92" height="36.31"/><rect class="cls-17" x="895.43" y="1050.59" width="4.92" height="36.31"/><rect class="cls-17" x="884.71" y="1051.53" width="4.92" height="36.31"/><rect class="cls-17" x="873.3" y="1052.24" width="4.92" height="36.31"/><polygon class="cls-38" points="576.99 941.98 891.46 941.98 738.84 1013.72 576.99 941.98"/><path class="cls-39" d="M717.35,1000.07l183.76-82.13a59.13,59.13,0,0,1,39.2-3.51c21.56,5.74,39.47,22.22,45,44.15h0c7.9,31.32-12.44,61.88-45.43,68.25l-136,21.43a20.92,20.92,0,0,1-17-5.2Z"/><path class="cls-40" d="M796.92,1041.3,571.3,923.21c-42.25-14-87.1-.88-100.16,29.31h0c-13.06,30.18,10.6,66,52.86,80l252.44,64.07Z"/><rect class="cls-41" x="593.56" y="778.21" width="267.43" height="171.43" rx="11.13"/><rect class="cls-42" x="619.48" y="945.49" width="31.07" height="7.09"/><rect class="cls-42" x="805.28" y="945.49" width="31.07" height="7.09"/><path class="cls-43" d="M727,852.13v-.22c0-.07,0-.15,0-.23l-.06-.47a7.48,7.48,0,0,0-.2-.94,4.72,4.72,0,0,0-.81-1.67,2.86,2.86,0,0,0-.69-.61,2.45,2.45,0,0,0-.87-.35,4.1,4.1,0,0,0-.49-.06h-.25l-.26,0a5.24,5.24,0,0,0-1,.18,5.53,5.53,0,0,1,1-.38l.26-.07.26-.05a3.32,3.32,0,0,1,1.65.16,3.56,3.56,0,0,1,1,.59,4.77,4.77,0,0,1,.79.83,6.35,6.35,0,0,1,.59,1,10.37,10.37,0,0,1,.45,1c.06.18.12.36.17.54a2.76,2.76,0,0,1,.08.27l0,.14v.11s0,0,0,.05Z"/><path class="cls-43" d="M724.74,852.06a.86.86,0,0,1,0-.16v-.15l0-.29.06-.59c0-.39.12-.78.19-1.17a16.52,16.52,0,0,1,.57-2.28,8.89,8.89,0,0,1,1-2.14,4.41,4.41,0,0,1,.78-.89,2.87,2.87,0,0,1,1-.56,2.58,2.58,0,0,0-.86.71,3.93,3.93,0,0,0-.57.94,8.16,8.16,0,0,0-.56,2.13,14.83,14.83,0,0,0-.15,2.21q0,.55,0,1.11l0,.55,0,.27v.14s0,.09,0,.12Z"/><path class="cls-43" d="M725.5,853.43c0-.07,0-.11,0-.16l0-.14.06-.26a4.44,4.44,0,0,1,.15-.52,7.09,7.09,0,0,1,.38-1,5.6,5.6,0,0,1,1.24-1.74,3.47,3.47,0,0,1,.88-.61,3.7,3.7,0,0,1,1-.34l.12,0,.13,0H730l.25,0h.12l.13,0,.24,0h.13l.12,0,.24,0a4.67,4.67,0,0,0-1.88.29,3.22,3.22,0,0,0-1.38,1.11,4.44,4.44,0,0,0-.69,1.61,6.31,6.31,0,0,0-.14.87l0,.44v.41Z"/><circle class="cls-43" cx="708.76" cy="861.61" r="8.81"/><circle class="cls-43" cx="745.8" cy="861.61" r="8.81"/><circle class="cls-44" cx="745.8" cy="861.61" r="5.55"/><circle class="cls-44" cx="745.91" cy="861.61" r="5.55"/><circle class="cls-44" cx="708.71" cy="861.61" r="5.55"/><ellipse class="cls-43" cx="727.31" cy="868.74" rx="20.24" ry="18.21"/><circle class="cls-45" cx="719.22" cy="864.26" r="7.99"/><circle class="cls-45" cx="735.07" cy="864.26" r="7.99"/><circle class="cls-45" cx="727.34" cy="874.03" r="10.43"/><text class="cls-46" transform="translate(715.39 868.08)">&gt;</text><text class="cls-46" transform="matrix(-1, 0, 0, 1, 738.9, 868.08)">&gt;</text><circle cx="725.45" cy="869.62" r="0.88"/><circle cx="728.78" cy="869.62" r="0.88"/><ellipse class="cls-47" cx="715.55" cy="871.38" rx="4.76" ry="1.77"/><ellipse class="cls-47" cx="738.3" cy="871.38" rx="4.76" ry="1.77"/><path class="cls-17" d="M735.08,875.61a5.14,5.14,0,0,1-3,4.33l-.52.26a10.28,10.28,0,0,1-4.37.93,10.63,10.63,0,0,1-3.16-.46,9,9,0,0,1-1.64-.68,5.2,5.2,0,0,1-3.08-4.38Z"/><path class="cls-48" d="M732.1,879.94l-.52.26a10.28,10.28,0,0,1-4.37.93,10.63,10.63,0,0,1-3.16-.46,9,9,0,0,1-1.64-.68,6,6,0,0,1,4.86-2.09A6.06,6.06,0,0,1,732.1,879.94Z"/></g></svg>