<svg width="28" height="28" viewBox="0 0 28 28" fill="none" xmlns="http://www.w3.org/2000/svg">
<path fill-rule="evenodd" clip-rule="evenodd" d="M21.1677 4.23598C19.8027 4.4788 17.9624 5.08973 15.3798 5.95061L9.53331 7.89944C7.45661 8.59167 5.95245 9.09381 4.89004 9.54567C3.77929 10.0181 3.38416 10.3474 3.25583 10.5681C2.86056 11.2481 2.86056 12.0878 3.25583 12.7677C3.38416 12.9884 3.77929 13.3177 4.89003 13.7902C5.95245 14.242 7.45661 14.7442 9.53331 15.4364C9.5661 15.4473 9.59848 15.4581 9.63046 15.4687C10.0734 15.6161 10.4393 15.7378 10.759 15.905L16.9696 9.76281C17.3216 9.4147 17.8891 9.41785 18.2372 9.76983C18.5853 10.1218 18.5822 10.6894 18.2302 11.0375L12.0469 17.1526C12.2397 17.493 12.3702 17.8853 12.5313 18.3695C12.5419 18.4015 12.5527 18.4339 12.5636 18.4667C13.2558 20.5434 13.758 22.0476 14.2098 23.11C14.6823 24.2207 15.0116 24.6158 15.2323 24.7442C15.9122 25.1394 16.752 25.1394 17.4319 24.7442C17.6526 24.6158 17.9819 24.2207 18.4543 23.11C18.9062 22.0476 19.4083 20.5434 20.1006 18.4667L22.0494 12.6202C22.9103 10.0376 23.5212 8.19733 23.764 6.83235C24.008 5.46088 23.8216 4.87831 23.4716 4.52838C23.1217 4.17845 22.5391 3.99201 21.1677 4.23598ZM20.8537 2.47097C22.3729 2.20072 23.7412 2.26266 24.7393 3.26074C25.7374 4.25882 25.7993 5.6271 25.529 7.14633C25.2604 8.65638 24.6053 10.6215 23.776 13.1095L21.7869 19.0767C21.112 21.1014 20.5876 22.6746 20.104 23.8116C19.6376 24.9084 19.1196 25.8366 18.3329 26.294C17.0959 27.0131 15.5682 27.0131 14.3313 26.294C13.5446 25.8366 13.0266 24.9084 12.5601 23.8116C12.0765 22.6746 11.5521 21.1014 10.8773 19.0768L10.8629 19.0336C10.6264 18.3243 10.5544 18.1319 10.4523 17.9794C10.338 17.8087 10.1914 17.662 10.0207 17.5477C9.86813 17.4456 9.67573 17.3736 8.96641 17.1371L8.92319 17.1227C6.89857 16.4479 5.3254 15.9235 4.18838 15.4399C3.09162 14.9734 2.16336 14.4554 1.70599 13.6687C0.986889 12.4318 0.98689 10.9041 1.70599 9.66714C2.16336 8.8804 3.09162 8.36245 4.18839 7.89597C5.32541 7.41237 6.89861 6.88798 8.92327 6.2131L14.8906 4.224C17.3785 3.39466 19.3436 2.7396 20.8537 2.47097Z" fill="white"/>
</svg>
